<svg id="Layer_1" data-name="Layer 1" xmlns="http://www.w3.org/2000/svg" viewBox="0 0 351 389.89"><title>fingerprint</title><path d="M369.25,109.21a10.4,10.4,0,0,1-4.49-1.08C327.43,88.84,295,80.55,256.18,80.55A224,224,0,0,0,147.6,108a9.77,9.77,0,0,1-9.36-17.16A244.05,244.05,0,0,1,256.18,61.06c41.52,0,77.78,9.16,117.55,29.72a9.76,9.76,0,0,1-4.48,18.43Zm-279,102.34a10.13,10.13,0,0,1-5.65-1.75,9.7,9.7,0,0,1-2.34-13.55,203,203,0,0,1,73.2-63.84c61.31-31.68,139.68-31.78,201.09-.2a204,204,0,0,1,73.1,63.36,9.69,9.69,0,0,1-2.24,13.55,9.81,9.81,0,0,1-13.65-2.25,183,183,0,0,0-66.08-57.31c-55.95-28.75-127.4-28.66-183.25.2a182.86,182.86,0,0,0-66.18,57.8A9.94,9.94,0,0,1,90.28,211.55Zm121.94,235.2a9.67,9.67,0,0,1-6.92-2.92c-16.86-17.06-26-27.88-39.18-51.37-13.46-24-20.57-53.32-20.57-84.7,0-57.9,49.52-105.08,110.44-105.08s110.43,47.08,110.43,105.08a9.75,9.75,0,0,1-19.49,0c0-47.18-40.75-85.58-90.94-85.58s-91,38.4-91,85.58c0,28.07,6.24,54,18,75.15C195.65,405.33,204,415,219,430.09a9.63,9.63,0,0,1-.09,13.74A8.74,8.74,0,0,1,212.22,446.75ZM351.9,410.69c-23.2,0-43.57-5.85-60.43-17.25-29-19.69-46.3-51.66-46.3-85.58a9.75,9.75,0,1,1,19.49,0c0,27.38,14.13,53.31,37.82,69.4,13.74,9.35,29.92,13.93,49.42,13.93a127.26,127.26,0,0,0,20.37-1.85,9.75,9.75,0,1,1,3.41,19.2A139.42,139.42,0,0,1,351.9,410.69Zm-39.28,40.25a7.12,7.12,0,0,1-2.54-.39c-31.09-8.48-51.37-20-72.42-40.93a142.75,142.75,0,0,1-42.21-101.76c0-31.68,26.91-57.42,60.05-57.42s60,25.74,60,57.42c0,20.85,18.23,37.91,40.55,37.91s40.55-17,40.55-37.91c0-73.5-63.36-133.25-141.24-133.25-55.46,0-106,30.8-128.86,78.56-7.6,15.79-11.4,34.22-11.4,54.69,0,15.2,1.36,39.18,13,70.27A9.78,9.78,0,1,1,109.78,385a216.93,216.93,0,0,1-14.23-77.1c0-23.4,4.48-44.65,13.35-63.07,26-54.39,83.53-89.58,146.4-89.58C343.91,155.21,416,223.74,416,308c0,31.68-27,57.41-60,57.41S296,339.63,296,308C296,287.09,277.72,270,255.4,270S214.85,287,214.85,308a123.33,123.33,0,0,0,36.46,87.92c18.42,18.33,36.35,28.46,63.84,36a9.76,9.76,0,0,1,6.82,12A9.67,9.67,0,0,1,312.62,450.94Z" transform="translate(-80.5 -61.06)"/></svg>