<svg xmlns="http://www.w3.org/2000/svg" xmlns:xlink="http://www.w3.org/1999/xlink" width="500" height="500" viewBox="0 0 500 500">
  <defs>
    <style>
      .cls-1 {
        clip-path: url(#clip-custom_1);
      }

      .cls-2 {
        fill: #f61825;
      }

      .cls-3 {
        fill: none;
      }

      .cls-4 {
        fill: #fff;
      }
    </style>
    <clipPath id="clip-custom_1">
      <rect width="500" height="500"/>
    </clipPath>
  </defs>
  <g id="custom_1" data-name="custom – 1" class="cls-1">
    <rect class="cls-4" width="500" height="500"/>
    <g id="baseline-calendar_today-24px" transform="translate(45.414 45.414)">
      <path id="Path_112" data-name="Path 112" class="cls-2" d="M308.879,35.1H291.83V1h-34.1V35.1H87.244V1h-34.1V35.1H36.1A34.2,34.2,0,0,0,2,69.2V341.977a34.2,34.2,0,0,0,34.1,34.1H308.879a34.2,34.2,0,0,0,34.1-34.1V69.2A34.2,34.2,0,0,0,308.879,35.1Zm0,306.879H36.1V120.342H308.879Z" transform="translate(32.098 16.049)"/>
      <path id="Path_113" data-name="Path 113" class="cls-3" d="M0,0H409.172V409.172H0Z"/>
    </g>
  </g>
</svg>
