<?xml version="1.0" encoding="UTF-8"?>
<svg width="512px" height="512px" viewBox="0 0 512 512" version="1.1" xmlns="http://www.w3.org/2000/svg" xmlns:xlink="http://www.w3.org/1999/xlink">
    <!-- Generator: Sketch 53.1 (72631) - https://sketchapp.com -->
    <title>Slice 1</title>
    <desc>Created with Sketch.</desc>
    <g id="Page-1" stroke="none" stroke-width="1" fill="none" fill-rule="evenodd">
        <g id="Group-10">
            <g id="noun_help_926218" fill="#000000" fill-rule="nonzero">
                <path d="M256.077215,0 C187.671295,0 123.373398,26.6070102 75.0368178,74.9550245 C26.678569,123.303039 -1.42108547e-14,187.607423 -1.42108547e-14,255.999304 C-1.42108547e-14,324.390728 26.6154087,388.695113 74.9944035,437.042205 C123.309316,485.390224 187.627036,512 256.032956,512 C324.443929,511.990781 388.724583,485.357959 437.114182,436.997956 C536.961939,337.194358 536.961939,174.781208 437.114182,74.9550245 C388.800191,26.6286738 324.461448,0 256.077215,0 Z" id="Shape"></path>
            </g>
            <path d="M258.31394,129.542169 C238.446081,129.542169 221.019107,133.176542 206.110447,140.445289 C191.203422,147.714521 179.86702,156.857886 172.078897,167.921425 C164.291865,178.984964 160.385542,189.909894 160.385542,200.675854 C160.385542,205.887271 162.800836,210.733749 167.709898,215.213348 C172.618415,219.693917 178.661553,221.93299 185.781546,221.93299 C197.887441,221.93299 206.110447,215.5337 210.479992,202.709921 C215.029376,190.45803 220.658884,181.17751 227.289518,174.892113 C233.921221,168.606717 244.253794,165.452144 258.261624,165.452144 C270.265065,165.452144 280.058121,168.582969 287.639701,174.801 C295.222915,181.04084 299.027329,188.69779 299.027329,197.771845 C299.027329,202.412347 297.792979,206.732013 295.274142,210.687223 C292.832145,214.663758 289.773246,218.253059 286.097444,221.498745 C282.473414,224.721653 276.587771,229.522573 268.414902,235.87679 C259.135751,243.123244 251.707851,249.386831 246.233659,254.667553 C240.758376,259.947306 236.338694,266.049506 233.02257,273.043942 C229.706992,280.038379 228.060102,288.265759 228.060102,297.798296 C228.060102,305.409689 230.322804,311.124655 234.846575,314.988267 C239.344187,318.851395 244.97206,320.771084 251.603763,320.771084 C264.352174,320.771084 271.935389,314.872436 274.351772,303.078049 C275.765961,297.523501 276.820472,293.639049 277.514215,291.421301 C278.207958,289.204037 279.209607,286.987258 280.469571,284.769995 C281.728444,282.552731 283.707764,280.129008 286.303987,277.454237 C288.900209,274.780435 292.420695,271.695168 296.739558,268.175656 C312.417167,255.695006 323.316505,246.825952 329.383077,241.5462 C335.396787,236.288256 340.613211,230.024669 345.033982,222.755437 C349.455299,215.509953 351.614458,207.052365 351.614458,197.405936 C351.614458,185.177308 347.811679,173.839943 340.074783,163.393361 C332.363501,152.947748 321.412936,144.69565 307.25197,138.638038 C293.140597,132.58091 276.794859,129.542169 258.31394,129.542169 L258.31394,129.542169 Z" id="Path" fill="#FFFFFF"></path>
            <path d="M257.919235,351.614458 C248.694604,351.614458 240.972669,354.697326 234.640008,360.924758 C228.307961,367.150955 225.156627,374.776381 225.156627,383.883089 C225.156627,394.155821 228.423836,402.12797 234.987633,407.831616 C241.493187,413.534028 249.15749,416.385542 257.919235,416.385542 C266.333354,416.385542 273.822925,413.474801 280.271461,407.712545 C286.719997,401.952141 289.927711,394.008989 289.927711,383.883089 C289.927711,374.776381 286.891663,367.121959 280.731895,360.924758 C274.515723,354.697326 266.969746,351.614458 257.919235,351.614458 Z" id="Path" fill="#FFFFFF"></path>
        </g>
    </g>
</svg>