<svg xmlns="http://www.w3.org/2000/svg" width="99.685" height="100" viewBox="0 0 99.685 100"><defs><style>.a{fill:#e8e8e8;}.b{fill:#49ccb5;}.c{fill:#8bc34a;}.d{fill:#9ccc65;}.e{fill:#aed581;}.f{fill:#c5e1a5;}.g{fill:#dcedc8;}</style></defs><g transform="translate(0)"><ellipse class="a" cx="18.425" cy="1.301" rx="18.425" ry="1.301" transform="translate(28.074 69.824)"/><g transform="translate(27.223 34.466)"><rect class="b" width="9.014" height="24.844" transform="matrix(0.707, -0.707, 0.707, 0.707, 0, 16.126)"/><rect class="b" width="38.376" height="9.515" transform="translate(11.016 27.136) rotate(-45)"/></g><g transform="translate(44.207 90.754)"><g transform="translate(0)"><path class="c" d="M26.8,48.143a43.235,43.235,0,0,1-5.028-.293L22.824,38.9a33.586,33.586,0,0,0,3.973.232Z" transform="translate(-21.769 -38.897)"/></g></g><path class="c" d="M18.653,36.67,13.83,44.287a42.675,42.675,0,0,0,8.586,4.192l3.02-8.5A33.748,33.748,0,0,1,18.653,36.67Z" transform="translate(9.609 49.065)"/><path class="c" d="M20.217,37.864l-6.378,6.355A43.185,43.185,0,0,1,7.89,36.738l7.64-4.778A34.6,34.6,0,0,0,20.217,37.864Z" transform="translate(-1.648 45.291)"/><path class="d" d="M15.734,33.027,7.238,36A41.561,41.561,0,0,1,5.12,26.694l8.947-1.014A35.435,35.435,0,0,0,15.734,33.027Z" transform="translate(-5.12 29.812)"/><path class="e" d="M15.734,20.712a32.763,32.763,0,0,0-1.668,7.347L5.12,27.067a42.206,42.206,0,0,1,2.1-9.307Z" transform="translate(-5.12 16.478)"/><path class="f" d="M20.207,16.953a34.993,34.993,0,0,0-4.687,5.927L7.88,18.1a43.281,43.281,0,0,1,5.927-7.482Z" transform="translate(-1.66 -0.093)"/><path class="g" d="M25.416,14.6a32.907,32.907,0,0,0-6.761,3.29L13.81,10.292A42.646,42.646,0,0,1,22.4,6.1Z" transform="translate(9.575 -3.621)"/><g transform="translate(44.21 0)"><path class="c" d="M22.818,14.246,21.77,5.293A42.965,42.965,0,0,1,26.8,5v9.014A34.412,34.412,0,0,0,22.818,14.246Z" transform="translate(-21.77 -5)"/></g><g transform="translate(56.866 0)"><path class="c" d="M24,105V94.474c18.639,0,33.8-17.708,33.8-39.474S42.639,15.526,24,15.526V5C47.611,5,66.818,27.429,66.818,55S47.611,105,24,105Z" transform="translate(-24 -5)"/></g></g></svg>