<svg xmlns="http://www.w3.org/2000/svg" xmlns:xlink="http://www.w3.org/1999/xlink" width="500" height="500" viewBox="0 0 500 500">
  <defs>
    <style>
      .cls-1 {
        clip-path: url(#clip-custom_1);
      }

      .cls-2, .cls-6 {
        fill: #fff;
      }

      .cls-3 {
        fill: none;
        stroke: #707070;
        stroke-linecap: round;
        stroke-width: 40px;
      }

      .cls-4, .cls-5 {
        stroke: none;
      }

      .cls-5 {
        fill: #707070;
      }
    </style>
    <clipPath id="clip-custom_1">
      <rect width="500" height="500"/>
    </clipPath>
  </defs>
  <g id="custom_1" data-name="custom – 1" class="cls-1">
    <rect class="cls-6" width="500" height="500"/>
    <g id="Group_2139" data-name="Group 2139" transform="translate(18 -82)">
      <g id="Group_2138" data-name="Group 2138" transform="translate(32 132)">
        <g id="Path_1343" data-name="Path 1343" class="cls-2">
          <path class="cls-4" d="M 195.51318359375 371.0263977050781 C 98.73490142822266 371.0263977050781 20.00004005432129 292.2914733886719 20.00004005432129 195.51318359375 C 20.00004005432129 98.73490142822266 98.73490142822266 20.00004005432129 195.51318359375 20.00004005432129 C 292.2914733886719 20.00004005432129 371.0263977050781 98.73490142822266 371.0263977050781 195.51318359375 C 371.0263977050781 292.2914733886719 292.2914733886719 371.0263977050781 195.51318359375 371.0263977050781 Z"/>
          <path class="cls-5" d="M 195.51318359375 40 C 109.7629089355469 40 40 109.7629089355469 40 195.51318359375 C 40 281.2634582519531 109.7629089355469 351.0263671875 195.51318359375 351.0263671875 C 281.2634582519531 351.0263671875 351.0263671875 281.2634582519531 351.0263671875 195.51318359375 C 351.0263671875 109.7629089355469 281.2634582519531 40 195.51318359375 40 M 195.51318359375 0 C 303.4921875 0 391.0263671875 87.53427124023438 391.0263671875 195.51318359375 C 391.0263671875 303.4921875 303.4921875 391.0263671875 195.51318359375 391.0263671875 C 87.53427124023438 391.0263671875 0 303.4921875 0 195.51318359375 C 0 87.53427124023438 87.53427124023438 0 195.51318359375 0 Z"/>
        </g>
        <line id="Line_30" data-name="Line 30" class="cls-3" x2="79" y2="79" transform="translate(321 321)"/>
      </g>
    </g>
  </g>
</svg>
