<?xml version="1.0" encoding="utf-8"?>
<!-- Generator: Adobe Illustrator 23.0.2, SVG Export Plug-In . SVG Version: 6.00 Build 0)  -->
<svg version="1.1" id="Layer_1" xmlns="http://www.w3.org/2000/svg" xmlns:xlink="http://www.w3.org/1999/xlink" x="0px" y="0px"
	 viewBox="0 0 512 512" style="enable-background:new 0 0 512 512;" xml:space="preserve">
<path id="ic_fingerprint_24px" d="M348.55,134.52c-1.29,0-2.56-0.33-3.68-0.96C314.15,117.72,287.59,111,255.75,111
	c-31.14-0.18-61.82,7.58-89.12,22.56c-3.89,2.11-8.76,0.67-10.87-3.23c-2.1-3.88-0.68-8.73,3.19-10.85
	c29.69-16.18,62.99-24.6,96.8-24.48c34.08,0,63.84,7.52,96.48,24.32c3.92,2.15,5.36,7.07,3.21,10.99
	C354.05,132.84,351.43,134.45,348.55,134.52z M119.59,218.52c-1.66-0.01-3.27-0.51-4.64-1.44c-3.62-2.52-4.5-7.49-1.99-11.11
	c0.02-0.03,0.04-0.06,0.07-0.09c15.44-22.06,36.04-40.02,60-52.32c51.91-25.97,113-26.03,164.96-0.16c23.91,12.23,44.5,30.07,60,52
	c2.55,3.63,1.67,8.64-1.97,11.19c-3.61,2.53-8.59,1.68-11.15-1.91c-14.01-19.83-32.62-35.97-54.24-47.04
	c-47.38-23.55-103.07-23.49-150.4,0.16c-21.68,11.19-40.34,27.43-54.4,47.36C124.51,217.33,122.12,218.62,119.59,218.52z
	 M219.59,411.64c-2.12,0.03-4.16-0.84-5.6-2.4c-12.97-12.21-23.84-26.48-32.16-42.24c-11.43-21.34-17.21-45.24-16.8-69.44
	c0-47.52,40.64-86.24,90.56-86.24s90.56,38.72,90.56,86.24c0,4.42-3.58,8-8,8c-4.42,0-8-3.58-8-8c0-38.72-33.44-70.24-74.56-70.24
	s-74.56,31.52-74.56,70.24c-0.4,21.47,4.73,42.68,14.88,61.6c7.71,14.42,17.71,27.5,29.6,38.72c3.04,3.18,3.04,8.18,0,11.36
	C223.9,410.76,221.79,411.61,219.59,411.64z M334.31,382.04c-17.6,0.43-34.91-4.54-49.6-14.24c-23.57-15.64-37.83-41.96-38.08-70.24
	c0-4.42,3.58-8,8-8c4.42,0,8,3.58,8,8c0.19,22.98,11.83,44.35,31.04,56.96c12.06,7.87,26.25,11.83,40.64,11.36
	c5.58-0.09,11.14-0.63,16.64-1.6c4.37-0.75,8.53,2.19,9.28,6.56c0.75,4.37-2.19,8.53-6.56,9.28l0,0
	C347.28,381.33,340.8,381.98,334.31,382.04z M302.15,415c-0.7-0.03-1.4-0.14-2.08-0.32c-25.44-7.04-42.08-16.48-59.52-33.6
	c-22.33-22.04-34.84-52.15-34.72-83.52c0-25.92,22.08-47.04,49.28-47.04c27.2,0,49.28,21.12,49.28,47.04
	c0,17.12,14.88,31.04,33.28,31.04c18.4,0,33.28-13.92,33.28-31.04c0-60.32-52-109.28-116-109.28c-45.44,0-87.04,25.28-105.76,64.48
	c-6.47,14.04-9.7,29.35-9.44,44.8c-0.05,19.75,3.59,39.34,10.72,57.76c1.59,4.01-0.37,8.55-4.37,10.14
	c-0.09,0.04-0.18,0.07-0.27,0.1c-4.1,1.55-8.68-0.52-10.23-4.61c0-0.01-0.01-0.02-0.01-0.03c-7.71-20.24-11.67-41.71-11.68-63.36
	c-0.27-17.87,3.44-35.58,10.88-51.84c21.28-44.64,68.48-73.6,120.16-73.6c72.8,0,132,56.16,132,125.28
	c0,25.92-22.08,47.04-49.28,47.04c-27.2,0-49.28-21.12-49.28-47.04c0-17.12-14.88-31.04-33.28-31.04s-33.28,13.92-33.28,31.04
	c-0.14,27.1,10.65,53.11,29.92,72.16c15.2,15.04,29.76,23.36,52.32,29.6c4.24,1.14,6.75,5.5,5.61,9.73c0,0.01,0,0.02-0.01,0.03
	C308.87,412.44,305.76,414.96,302.15,415z"/>
</svg>
